<?xml version="1.0" encoding="UTF-8"?>
<svg id="Layer_1" data-name="Layer 1" xmlns="http://www.w3.org/2000/svg" viewBox="0 0 100 100">
  <defs>
    <style>
      .cls-1 {
        fill: #e40712;
        stroke-width: 0px;
      }
    </style>
  </defs>
  <g id="D_D_Logos" data-name="D D Logos">
    <g id="D_D" data-name="D D">
      <path class="cls-1" d="m100,62.79c-.02,1.91-1.57,3.44-3.48,3.42-1.91-.02-3.44-1.57-3.42-3.48.02-1.89,1.56-3.42,3.45-3.42,1.82-.09,3.37,1.32,3.45,3.14,0,.11,0,.23,0,.34m-3.45,2.77c1.53.08,2.83-1.09,2.92-2.62s-1.09-2.83-2.62-2.92c-1.53-.08-2.83,1.09-2.92,2.62,0,.05,0,.1,0,.15-.12,1.4.92,2.64,2.32,2.76.1,0,.2.01.3,0m.84-2.28c1.29-.29,1-2.26-.54-2.26h-1.69v3.54h.93v-1.1h.33l.84,1.1h1v-.2l-.87-1.08Zm-.54-1.42c.22-.04.43.12.47.34.04.22-.12.43-.34.47-.04,0-.09,0-.13,0h-.76v-.81h.76Z"/>
      <path class="cls-1" d="m19.76,57.92h-3.86v-17.68h3.86c5.07,0,8,3.23,8,8.87s-2.9,8.81-8,8.81m54.24-15.83v-1c-.64.19-1.27.43-1.87.73.63,0,1.26.08,1.87.22m-42.23,15.53l-1.07,1.5.38-4.24c.36-2.83,1.76-5.43,3.92-7.29-.3,0-.62.08-1,.15l-3.8.79,2.8-2.75c1.02-.9,2.17-1.66,3.4-2.25l.41-.22c-1.34-4-4.2-7.33-7.95-9.26-2.61-1.35-5.51-2.05-8.45-2.07h-6.91c-5.47,0-8.06-.07-10-.51-1.09-.31-2.13-.79-3.08-1.42l-.42-.24v.5c0,.16.39,3.86,4.82,7.1.86.61,1.46,1.22,1.46,3.4v19.84c0,2.12-.42,2.71-1.41,3.31s-3.26,1.93-3.26,1.93l-.77.45h18c5,0,8.18-.85,11.59-3.13.47-.31.92-.64,1.35-1-.22-1.51-.22-3.04,0-4.55m34.42.48c.22-.33.26-.74.12-1.1l-1.12-3.09,2.8,1.66c.27.16.51.35.74.56l1.68-.12c1.22-.11,2.45.05,3.6.49v-8.7c-.48.14-.93.37-1.33.66l-.71.64-.77-.58c-.59-.4-1.29-.61-2-.59-1.29,0-2.51.54-3.38,1.49-.5.58-1,1.18-1.37,1.77v6.89c.68.52,1.39.51,1.76,0m20.78-24.07c-2.61-1.35-5.51-2.05-8.45-2.07h-6.94c-5.47,0-8.06-.07-10-.51-1.09-.31-2.13-.79-3.08-1.42l-.42-.28v.5c0,.16.39,3.86,4.82,7.1.86.61,1.46,1.22,1.46,3.4v1.43c1-.61,2.05-1.13,3.15-1.54-.47.42-.89.89-1.27,1.4,1-.64,2.13-1.06,3.31-1.22,1.46-.26,2.94-.26,4.4,0v-.54h3.86c5.06,0,8,3.23,8,8.87s-2.91,8.81-8,8.81h-1.47c1.36,1.21,2.15,2.93,2.17,4.75,0,1.3-.42,2.56-1.18,3.61,4.81,0,7.88-.9,11.2-3.12,1.4-.93,2.64-2.06,3.69-3.37,2.37-3.1,3.63-6.9,3.59-10.8.12-6.27-3.3-12.07-8.84-15"/>
      <path class="cls-1" d="m37.55,36.05c-.32-2.52.54-5.04,2.32-6.84,2.07-2.09,4.99-3.12,7.91-2.79,5.74.31,8.49,4.24,8.49,8.48-.16,2.44-1.02,4.77-2.49,6.72l-.25-.26c-.28-.28-.61-.57-1-.88-1.02-.85-1.93-1.82-2.72-2.89,1.57-2.86.67-6.91-2.65-6.91-2.02.12-3.57,1.86-3.45,3.88,0,.09.01.18.03.27-.52,1.32-.73,2.75-.61,4.17-.92-.48-1.66-1.24-2.13-2.16l-1.22-2.92-1,3c-.23.74-.29,1.53-.17,2.3h0c-.62-.96-.99-2.05-1.08-3.18m-3.75,10.52c1.64-1.64,5-2.66,5.21-3.55s-1.51-2.37-2.16-2.65c1.2-.1,2.41.02,3.57.35-.64-1.02-.81-2.27-.47-3.43,1.3,3.12,5.94,3.62,7.09,6.2-.36-1.32-1.24-2.43-2.44-3.09-.66-1.7-.17-4.82.64-5.69-.29,4.5,6.13,7.07,7.46,10.33-.79-2.8-3.77-4.57-5.19-6.24-.38-1.22-.24-2.54.4-3.64-.15,3,3.1,5.36,4.83,7,2.05,2,2.63,3.73,2.35,5.16.62.11,1.05.67,1,1.3.66-.23,1.2-.72,1.48-1.36.28,2.1-.68,4.16-2.46,5.3.22-.64.11-1.34-.28-1.89-.66-.8-2.54-.81-3.17-.76,0,0,.77-1.16.47-1.74-.39-.73-4.06-.41-5.71.19.79-.04,1.59.06,2.35.28-.26.38-.93,2-.45,2.49s1-.33,1-.33c0,0-.57,1.77-.16,2.18s1.29.12,1.29.12c-.55,1.39-2.68,2.34-4.18,2.34.71-.35,1.27-.95,1.55-1.69-.57.22-1.19.31-1.8.26.91-.63,1.36-1.75,1.15-2.84-.45-2-3.29-2.3-4.72-1.31.54-1.37,1.59-2.48,2.93-3.08-.71-.24-1.43-.42-2.17-.55,1.31-.81,2.81-1.23,4.35-1.22-1.78-.46-5,.11-6.52,1.87.73.05,1.46.18,2.17.38-2.11.58-4.05,1.67-5.64,3.17.21-1.18.54-2.18.27-2.89-.4-1-1.62-1.42-4-.92m18.49.22c-.36-1-1.14-1.8-2.14-2.18.33,1.14.76,2.18,2.14,2.18m25.07,15.84c0-3.3-3.2-5.86-6.85-5.52,1.37.29,2.38,1.45,2.47,2.85,0,2.58-3.22,3.38-5,3,1.89-1.31,1.64-5.08-.63-6.42.77,2.11-1.54,4.21-3.78,2.37-1.25-1-4.13-3.43-5.42-4.47s-2.8-.43-3.39-.88-.24-2-1.17-2.5c-.77-.45-1.54-.2-2.44-.5-.82-.18-1.38-.93-1.32-1.76-.4.78-.3,1.72.25,2.4.62.71,1.64,1.15,2.07,1.93.55,1-.38,2.42,2.06,4.34,1.17.91,3,2.41,4.16,3.45,2,1.75.93,3.92,1.19,5.82.26,1.79,1.54,3.26,3.28,3.76-1.24-1.32-1.24-3.39,0-4.71.17,2.61,1.96,4.84,4.47,5.57,3.24.86,6.69-1,7.41-2.27-1.6.43-3.3.05-4.58-1,3.8.54,7.17-2.11,7.17-5.49m-19.72-.86c-1-.89-2.53-2.15-3.67-3.06-1.3,2.22-4.07,5.12-6.87,5.12-5.16,0-7.75-7.3-2-13.28-.25-.08-.52-.12-.78-.12-.46-.01-.91.11-1.3.35l-2.19,1.6.52-2.89c.05-.17.11-.34.18-.5-1.13.54-2.18,1.26-3.09,2.12l-2.24,2.45.24-3.45.15-.77c.14-.48.2-.99.18-1.49-.04-.08-.1-.14-.17-.18-1.06.82-4,3.41-4.33,7.22.26-.4.6-.74,1-1,.33-.12.61,0,.3,1-.12.37-2.94,8,2.61,13.29,0,0-.61-1.55-.24-2,.18-.23.41-.25.73.16s.49.62.76.92h0c.49.53,1.02,1.02,1.6,1.46,1.9,1.34,4.16,2.07,6.48,2.1,6.87,0,10.5-4.74,12.52-8.71-.09-.1-.19-.21-.3-.31m11.78-16.56c-5.11.25-9.52,4.6-11.77,7.67.44.14.85.36,1.22.64l1.92,1.57c1.05-2.34,2.42-4.52,4.08-6.48,1.75-2.04,4.73-2.49,7-1.06,1.13-1,5-2,7-1.39-1.76-1.91-4.19-3.05-6.78-3.2-2.41,0-3.77,1.18-4.12.65s1.63-1.65,1.63-1.65c-2.84.12-4.91,3.47-5.77,3-.51-.25.77-1.86.77-1.86-2.47,1.54-4.32,3.9-5.23,6.66,2.39-2.93,7-5,10.05-4.59m.86,13c.84.2,1.46.92,1.53,1.79,0,.57-.31,1.1-.81,1.37-.26.16-.54.28-.83.36.16-.56.24-1.15.22-1.73,0-1.09-.11-1.69-.11-1.69"/>
    </g>
  </g>
</svg>