<?xml version="1.0" encoding="UTF-8"?>
<svg id="D_D_Logos" data-name="D&amp;amp;D Logos" xmlns="http://www.w3.org/2000/svg" viewBox="0 0 100 100">
  <defs>
    <style>
      .cls-1 {
        fill: #df0914;
        stroke-width: 0px;
      }
    </style>
  </defs>
  <g id="D_D" data-name="D&amp;amp;D">
    <path class="cls-1" d="m18.27,23.93c-.68-7.48,2.88-11.62,4.49-13.25,3.53-3.61,8.3-5.78,15.33-5.4,11.1.59,16.43,8.22,16.43,16.43,0,3.96-2.01,9.26-4.81,13.02-.17-.17-.31-.34-.49-.51-.55-.53-1.18-1.1-1.85-1.71-1.82-1.65-3.88-3.55-5.27-5.59,3.04-5.53,1.3-13.38-5.12-13.38-3.76,0-6.9,3.45-6.63,8.02-.98,2.16-1.46,5.3-1.27,8.08-1.84-1.16-3.4-2.43-4.12-4.19l-2.36-5.66-1.86,5.84c-.44,1.39-.54,2.95-.34,4.45-.01,0-.03,0-.04,0-.84-1.27-1.83-3.29-2.09-6.15m-7.3,20.34c3.17-3.17,9.65-5.13,10.09-6.86.42-1.7-2.94-4.59-4.19-5.14,4.61-.18,6.91.69,6.91.69-1.21-1.77-1.6-4.49-.91-6.64,2.51,6.03,11.5,7,13.73,12-.32-2.16-2.36-4.58-4.73-5.99-1.27-3.28-.32-9.34,1.23-11-.54,8.7,11.87,13.68,14.45,20-1.51-5.42-7.3-8.85-10.04-12.09-.91-2.15-.21-5.8.77-7.05-.29,5.83,6,10.38,9.36,13.64,3.96,3.83,5.08,7.23,4.55,10,.87.23,2.06,1.07,1.86,2.5,1.26-.29,2.55-1.75,2.86-2.64.62,4.32-1.92,8.9-4.78,10.27,0,0,.77-2.06-.53-3.65-1.28-1.55-4.92-1.57-6.15-1.49,0,0,1.51-2.23.91-3.37-.75-1.4-7.86-.78-11.04.37,1.08-.11,3.65.18,4.54.54-.5.74-1.8,3.88-.86,4.82.86.86,2-.63,2-.63,0,0-1.11,3.43-.31,4.22.79.8,2.49.23,2.49.23-1.06,2.69-5.2,4.54-8.09,4.54,1.04-.33,2.74-2.16,3-3.28-.76.38-2.73.6-3.5.46.93-.38,2.81-2.79,2.23-5.5-.86-3.95-6.37-4.46-9.14-2.54.9-2.65,3.58-5.14,5.68-5.95-1.23-.43-2.66-.8-4.21-1.07,1.76-1.45,6.19-2.62,8.45-2.5-3.45-.88-9.75.22-12.64,3.63.92,0,3.3.45,4.21.74-3.95.72-9.34,4.4-10.93,6.14.42-2.29,1.06-4.23.52-5.6-.76-1.94-3.12-2.76-7.81-1.79m35.8.43s-.94-3.05-4.14-4.23c.63,2.21,1.47,4.23,4.14,4.23m48.63,30.78c0-6.4-6.2-11.36-13.27-10.7,2.01.34,4.84,2.49,4.84,5.55,0,4.99-6.23,6.53-9.68,5.76,3.66-2.54,3.17-9.84-1.23-12.45,1.49,4.09-2.98,8.16-7.32,4.59-2.41-1.98-8-6.64-10.5-8.64-2.49-2-5.41-.84-6.56-1.71-1.31-1-.47-3.8-2.26-4.84-1.5-.87-2.97-.38-4.72-.96-1.58-.53-2.77-1.76-2.56-3.42-.67,1.18-.72,3.25.48,4.64,1.19,1.38,3.18,2.23,4,3.75,1.06,1.97-.73,4.69,4,8.4,2.26,1.77,5.77,4.68,8.06,6.69,3.85,3.38,1.8,7.6,2.3,11.28.58,4.3,4.04,6.68,6.34,7.28-1.98-1.81-2.73-6.34.05-9.13.14,3.59,2.73,9.21,8.64,10.79,6.28,1.67,12.96-1.89,14.35-4.4-2.42,1.1-6.99-.08-8.87-1.85,7.37,1.04,13.9-4.07,13.9-10.63m-38.2-1.66c-1.96-1.73-4.89-4.16-7.11-5.93-2.51,4.3-7.87,9.91-13.3,9.91-10,0-15.01-14.15-3.8-25.72-.65-.21-1.3-.24-1.51-.24-.96,0-1.9.26-2.51.68l-4.41,3.04,1-5.61c.1-.3.22-.59.35-.88-2.54,1.26-5.05,3.07-5.99,4.1l-4.33,4.75.46-6.67c.1-.52.2-1.02.3-1.5.23-1.08.51-2.42.34-2.87-.06-.14-.18-.26-.31-.35-2.07,1.59-7.74,6.61-8.4,13.98,0,0,1.1-1.55,2.05-1.91.63-.24,1.18.07.58,1.91-.24.72-5.7,15.51,5.05,25.74,0,0-1.17-3.01-.46-3.92.34-.44.8-.48,1.42.32.46.61.95,1.2,1.46,1.79h0c.89,1.01,1.87,1.96,2.93,2.78,3.22,2.25,7.58,4.06,12.55,4.06,13.3,0,20.34-9.17,24.25-16.87-.17-.2-.37-.4-.59-.59m22.9-32.08c-9.91.48-18.44,8.92-22.81,14.85.78.26,1.58.62,2.36,1.25.92.74,2.27,1.85,3.72,3.04,1.15-2.55,3.8-7.85,7.91-12.55,3.69-4.24,10.14-4.64,13.52-2.06,2.18-1.97,9.69-3.82,13.64-2.69-2.41-2.62-7.53-6.13-13.19-6.13-4.66,0-7.29,2.29-7.96,1.26-.86-1.32,3.16-3.27,3.16-3.27-5.51.22-9.51,6.7-11.18,5.9-.99-.48,1.49-3.61,1.49-3.61-5.04,2.93-9.26,9.12-10.14,12.9,4.64-5.68,13.63-9.74,19.48-8.88m1.65,25.26c1.04.18,2.97,1.48,2.97,3.34,0,1.11-.51,1.98-1.57,2.64-.46.29-1.01.53-1.6.71.32-1.06.47-2.21.43-3.41-.08-2.12-.22-3.28-.22-3.28"/>
  </g>
</svg>